<svg id="Casino_icons" data-name="Casino icons" xmlns="http://www.w3.org/2000/svg" viewBox="0 0 100 100"><defs><style>.cls-1{fill:#ffad00;}</style></defs><path class="cls-1" d="M70.91,59.91a1.17,1.17,0,0,1-1.17-1.13l-.2-6.07c-.33-2.1-2.84-5.32-12.82-8.84a1.17,1.17,0,0,1,.77-2.2c9.1,3.21,13.8,6.74,14.37,10.77a.62.62,0,0,1,0,.13l.2,6.13a1.17,1.17,0,0,1-1.13,1.21Z"/><path class="cls-1" d="M40.79,66.74l-.18,0a1.17,1.17,0,0,1-1-1.34L41,56.74a1.16,1.16,0,0,1,2.3.37l-1.4,8.65A1.16,1.16,0,0,1,40.79,66.74Z"/><path class="cls-1" d="M47.79,66.74a1.18,1.18,0,0,1-1.16-1L45.55,57a1.17,1.17,0,1,1,2.32-.29L49,65.43a1.16,1.16,0,0,1-1,1.3Z"/><path class="cls-1" d="M44.44,59.11a2.41,2.41,0,0,1-1.73-.72L40.36,56a2.45,2.45,0,0,1,0-3.47l1.84-1.84a1.16,1.16,0,0,1,1.65,0,1.18,1.18,0,0,1,0,1.65L42,54.22a.11.11,0,0,0,0,.17l2.35,2.35a.14.14,0,0,0,.17,0l2.35-2.35a.14.14,0,0,0,0-.17L45,52.38a1.17,1.17,0,1,1,1.65-1.65l1.84,1.84a2.47,2.47,0,0,1,0,3.47l-2.35,2.35A2.45,2.45,0,0,1,44.44,59.11Z"/><path class="cls-1" d="M53,66.74A1.17,1.17,0,0,1,52,65l3.59-6.21-2.46-2.45a1.17,1.17,0,0,1,1.65-1.65l3.09,3.08a1.17,1.17,0,0,1,.19,1.41l-4,7A1.17,1.17,0,0,1,53,66.74Z"/><path class="cls-1" d="M57.73,56.2h-.19a1.17,1.17,0,0,1-1-1.34l1.5-9.31-4.11-4a1.17,1.17,0,0,1,1.63-1.67l4.54,4.46a1.14,1.14,0,0,1,.34,1l-1.6,9.9A1.17,1.17,0,0,1,57.73,56.2Z"/><path class="cls-1" d="M47.79,66.74a1.55,1.55,0,0,1-.29,0,1.17,1.17,0,0,1-.84-1.42L50,52.1a1.17,1.17,0,1,1,2.26.57L48.92,65.86A1.17,1.17,0,0,1,47.79,66.74Z"/><path class="cls-1" d="M53.88,80.2H22.71a8.31,8.31,0,0,1-8.17-9.74c.45-2.54,1.05-7.75,1.54-11.93.29-2.54.54-4.72.73-6.08.57-4.11,5.17-7.64,14.06-10.78a1.17,1.17,0,1,1,.77,2.2c-9.81,3.47-12.22,6.75-12.52,8.9-.18,1.33-.43,3.5-.72,6-.52,4.44-1.1,9.47-1.56,12.08a6,6,0,0,0,5.87,7h30V70.37H25.8a1.17,1.17,0,0,1,0-2.34H53.88A1.16,1.16,0,0,1,55,69.2V79A1.16,1.16,0,0,1,53.88,80.2Z"/><path class="cls-1" d="M35.65,66.74a1.14,1.14,0,0,1-1-.59l-4.05-7a1.18,1.18,0,0,1,.19-1.41l3.09-3.08a1.17,1.17,0,0,1,1.65,1.65l-2.46,2.45L36.66,65a1.17,1.17,0,0,1-.43,1.6A1.1,1.1,0,0,1,35.65,66.74Z"/><path class="cls-1" d="M30.94,56.2a1.17,1.17,0,0,1-1.14-.94l-1.92-9.91a1.18,1.18,0,0,1,.33-1.05L32.52,40a1.17,1.17,0,0,1,1.65,1.65l-3.88,3.86,1.8,9.29a1.17,1.17,0,0,1-.92,1.37A.9.9,0,0,1,30.94,56.2Z"/><path class="cls-1" d="M40.79,66.74a1.16,1.16,0,0,1-1.13-.9L36.57,52.65a1.17,1.17,0,1,1,2.27-.53L41.93,65.3a1.17,1.17,0,0,1-.87,1.41A1.24,1.24,0,0,1,40.79,66.74Z"/><path class="cls-1" d="M44.2,52.38c-5.9,0-10-4.06-11.79-11.74a1.17,1.17,0,0,1,2.28-.54c1.55,6.6,4.75,9.95,9.51,9.95,6.78,0,9.19-6.88,10-12.64a1.17,1.17,0,0,1,2.31.33C55.17,47.18,50.79,52.38,44.2,52.38Z"/><path class="cls-1" d="M29.67,39.06a1.16,1.16,0,0,1-1.15-.94C27,30.38,29.89,22,35.55,17.74a12.92,12.92,0,0,1,14.12-1.19A9.31,9.31,0,0,1,55.74,20c2.59,3.3,3.23,8.38,1.9,15.09A1.15,1.15,0,0,1,57,36a1.16,1.16,0,0,1-1.07-.06c-.14-.08-3.22-2-6.25-7.69A43.89,43.89,0,0,1,29.94,39ZM43.42,17.35A10.63,10.63,0,0,0,37,19.61c-4.68,3.52-7.19,10.3-6.35,16.83a41.21,41.21,0,0,0,18.47-11,1.16,1.16,0,0,1,1.93.27,24.43,24.43,0,0,0,4.68,7c.7-4.95.1-8.8-1.76-11.2a6.77,6.77,0,0,0-4.65-2.66,1.1,1.1,0,0,1-.47-.13A11.83,11.83,0,0,0,43.42,17.35Z"/><path class="cls-1" d="M31.6,70.37a1.18,1.18,0,0,1-.86-.38l-3.32-3.63a1.17,1.17,0,0,1,.08-1.65,1.16,1.16,0,0,1,1.64.07l3.33,3.63a1.17,1.17,0,0,1-.08,1.65A1.13,1.13,0,0,1,31.6,70.37Z"/><path class="cls-1" d="M73.55,75a1.17,1.17,0,0,1-1.17-1.17v-20a1.17,1.17,0,0,1,1.17-1.17h8.76a1.17,1.17,0,0,1,1.16,1.17V70.42a1.17,1.17,0,0,1-2.33,0V55H74.72V73.87A1.17,1.17,0,0,1,73.55,75Z"/><path class="cls-1" d="M73.65,72.05a1.18,1.18,0,0,1-1.17-1.18,1.15,1.15,0,0,1,1.16-1.15h6.8a1.14,1.14,0,0,1,1.16,1.14A1.16,1.16,0,0,1,80.44,72l-6.79,0Z"/><path class="cls-1" d="M82.05,63.33h-8.4a1.17,1.17,0,1,1,0-2.33h8.4a1.17,1.17,0,1,1,0,2.33Z"/><path class="cls-1" d="M82.05,59.13h-8.4a1.17,1.17,0,0,1,0-2.34h8.4a1.17,1.17,0,0,1,0,2.34Z"/><path class="cls-1" d="M75.94,85H67.18A1.17,1.17,0,0,1,66,83.83V74.11A1.17,1.17,0,0,1,67.18,73h8.76a1.16,1.16,0,0,1,1.16,1.16v9.72A1.16,1.16,0,0,1,75.94,85Zm-7.59-2.33h6.42V75.28H68.35Z"/><path class="cls-1" d="M75.83,80.14H67.42a1.17,1.17,0,0,1,0-2.34h8.41a1.17,1.17,0,0,1,0,2.34Z"/><path class="cls-1" d="M88.41,81.72h-8a1.16,1.16,0,0,1-1.17-1.16V70.84a1.17,1.17,0,0,1,1.17-1.17h8a1.17,1.17,0,0,1,1.17,1.17v9.72A1.16,1.16,0,0,1,88.41,81.72ZM81.6,79.39h5.65V72H81.6Z"/><path class="cls-1" d="M88.12,76.87H76.29a1.17,1.17,0,0,1,0-2.33H88.12a1.17,1.17,0,1,1,0,2.33Z"/><path class="cls-1" d="M80,81.69H76.14a1.17,1.17,0,1,1,0-2.33H80a1.17,1.17,0,1,1,0,2.33Z"/><path class="cls-1" d="M63.32,79.05h-9a1.17,1.17,0,0,1,0-2.34h9a1.17,1.17,0,0,1,0,2.34Z"/><path class="cls-1" d="M67.5,75.7a1.22,1.22,0,0,1-.61-.17l-2.13-1.31a5.51,5.51,0,0,0-2.37-.79l-8.59-.79A1.16,1.16,0,1,1,54,70.32l8.59.78A7.84,7.84,0,0,1,66,72.23l2.13,1.31a1.16,1.16,0,0,1-.61,2.16Z"/><path class="cls-1" d="M64.8,74.08a1.17,1.17,0,0,1-1.17-1.17V62.33a1.17,1.17,0,0,1,1.17-1.17h8.75a1.17,1.17,0,1,1,0,2.33H66v9.42A1.17,1.17,0,0,1,64.8,74.08Z"/><path class="cls-1" d="M82.05,67.84h-17a1.17,1.17,0,1,1,0-2.33h17a1.17,1.17,0,1,1,0,2.33Z"/><path class="cls-1" d="M73.49,71.73h-8.4a1.17,1.17,0,1,1,0-2.33h8.4a1.17,1.17,0,1,1,0,2.33Z"/></svg>