<svg width="32" height="33" viewBox="0 0 32 33" fill="none" xmlns="http://www.w3.org/2000/svg">
<path d="M5.33329 24.4565C5.33329 23.7202 5.93025 23.1232 6.66663 23.1232H25.3333C26.0697 23.1232 26.6666 23.7202 26.6666 24.4565V27.1232C26.6666 27.8596 26.0697 28.4565 25.3333 28.4565H6.66663C5.93025 28.4565 5.33329 27.8596 5.33329 27.1232V24.4565Z" fill="url(#paint0_linear_319_173478)"/>
<path fill-rule="evenodd" clip-rule="evenodd" d="M7.33329 25.1232V26.4565H24.6666V25.1232H7.33329ZM6.66663 23.1232C5.93025 23.1232 5.33329 23.7202 5.33329 24.4565V27.1232C5.33329 27.8596 5.93025 28.4565 6.66663 28.4565H25.3333C26.0697 28.4565 26.6666 27.8596 26.6666 27.1232V24.4565C26.6666 23.7202 26.0697 23.1232 25.3333 23.1232H6.66663Z" fill="url(#paint1_linear_319_173478)"/>
<path d="M5.33329 12.9365L9.33329 24.4565H22.6666L26.6666 12.9365L20 18.0565L16 8.45654L12 18.0565L5.33329 12.9365Z" fill="url(#paint2_linear_319_173478)"/>
<path fill-rule="evenodd" clip-rule="evenodd" d="M16 7.45654C16.4037 7.45654 16.7678 7.69928 16.9231 8.07193L20.4227 16.471L26.0576 12.1434C26.408 11.8743 26.8935 11.8671 27.2518 12.1256C27.6101 12.3841 27.7563 12.8472 27.6114 13.2646L23.6114 24.7846C23.4717 25.1868 23.0926 25.4565 22.6667 25.4565H9.33337C8.90751 25.4565 8.52838 25.1868 8.38869 24.7846L4.38869 13.2646C4.24377 12.8472 4.38994 12.3841 4.74824 12.1256C5.10654 11.8671 5.59204 11.8743 5.94246 12.1434L11.5773 16.471L15.077 8.07193C15.2322 7.69928 15.5963 7.45654 16 7.45654ZM16 11.0565L12.9231 18.4412C12.8036 18.7279 12.5578 18.9428 12.2576 19.0228C11.9575 19.1028 11.6373 19.0388 11.3909 18.8496L7.37388 15.7645L10.0447 23.4565H21.9554L24.6262 15.7645L20.6091 18.8496C20.3628 19.0388 20.0425 19.1028 19.7424 19.0228C19.4423 18.9428 19.1964 18.7279 19.077 18.4412L16 11.0565Z" fill="url(#paint3_linear_319_173478)"/>
<path fill-rule="evenodd" clip-rule="evenodd" d="M4.66663 13.7899C5.7712 13.7899 6.66663 12.8944 6.66663 11.7899C6.66663 10.6853 5.7712 9.78988 4.66663 9.78988C3.56206 9.78988 2.66663 10.6853 2.66663 11.7899C2.66663 12.8944 3.56206 13.7899 4.66663 13.7899Z" fill="url(#paint4_linear_319_173478)"/>
<path fill-rule="evenodd" clip-rule="evenodd" d="M27.3333 13.7899C28.4379 13.7899 29.3333 12.8944 29.3333 11.7899C29.3333 10.6853 28.4379 9.78988 27.3333 9.78988C26.2287 9.78988 25.3333 10.6853 25.3333 11.7899C25.3333 12.8944 26.2287 13.7899 27.3333 13.7899Z" fill="url(#paint5_linear_319_173478)"/>
<path fill-rule="evenodd" clip-rule="evenodd" d="M16 8.45654C17.1045 8.45654 18 7.56111 18 6.45654C18 5.35197 17.1045 4.45654 16 4.45654C14.8954 4.45654 14 5.35197 14 6.45654C14 7.56111 14.8954 8.45654 16 8.45654Z" fill="url(#paint6_linear_319_173478)"/>
<defs>
<linearGradient id="paint0_linear_319_173478" x1="2.66663" y1="16.4565" x2="29.3333" y2="16.4565" gradientUnits="userSpaceOnUse">
<stop stop-color="#F857A6"/>
<stop offset="1" stop-color="#FF5858"/>
</linearGradient>
<linearGradient id="paint1_linear_319_173478" x1="2.66663" y1="16.4565" x2="29.3333" y2="16.4565" gradientUnits="userSpaceOnUse">
<stop stop-color="#F857A6"/>
<stop offset="1" stop-color="#FF5858"/>
</linearGradient>
<linearGradient id="paint2_linear_319_173478" x1="2.66663" y1="16.4565" x2="29.3333" y2="16.4565" gradientUnits="userSpaceOnUse">
<stop stop-color="#F857A6"/>
<stop offset="1" stop-color="#FF5858"/>
</linearGradient>
<linearGradient id="paint3_linear_319_173478" x1="2.66663" y1="16.4565" x2="29.3333" y2="16.4565" gradientUnits="userSpaceOnUse">
<stop stop-color="#F857A6"/>
<stop offset="1" stop-color="#FF5858"/>
</linearGradient>
<linearGradient id="paint4_linear_319_173478" x1="2.66663" y1="16.4565" x2="29.3333" y2="16.4565" gradientUnits="userSpaceOnUse">
<stop stop-color="#F857A6"/>
<stop offset="1" stop-color="#FF5858"/>
</linearGradient>
<linearGradient id="paint5_linear_319_173478" x1="2.66663" y1="16.4565" x2="29.3333" y2="16.4565" gradientUnits="userSpaceOnUse">
<stop stop-color="#F857A6"/>
<stop offset="1" stop-color="#FF5858"/>
</linearGradient>
<linearGradient id="paint6_linear_319_173478" x1="2.66663" y1="16.4565" x2="29.3333" y2="16.4565" gradientUnits="userSpaceOnUse">
<stop stop-color="#F857A6"/>
<stop offset="1" stop-color="#FF5858"/>
</linearGradient>
</defs>
</svg>
