<svg width="32" height="33" viewBox="0 0 32 33" fill="none" xmlns="http://www.w3.org/2000/svg">
<path d="M20.3368 3.12329C21.8812 3.12329 23.153 4.29028 23.3185 5.79054L25.0089 5.78996C26.233 5.78996 27.2372 6.73277 27.3345 7.93192L27.3422 8.12329V12.1233C27.3422 14.434 25.5336 16.3222 23.2548 16.4498L22.9744 16.4576C22.084 19.2445 19.6432 21.3386 16.6662 21.7256L16.6654 23.79H19.0034C21.3141 23.79 23.2025 25.5986 23.33 27.8774L23.3368 28.1233V28.79C23.3368 29.2962 22.9606 29.7146 22.4725 29.7809L22.3368 29.79H8.99942C8.49316 29.79 8.07476 29.4137 8.00855 28.9257L7.99942 28.79V28.1233C7.99942 25.8126 9.80803 23.9244 12.0869 23.7968L12.3327 23.79H14.6654L14.666 21.725C11.6909 21.3368 9.25184 19.2433 8.36182 16.4576L8.3268 16.4566C5.93356 16.4566 3.99347 14.5165 3.99347 12.1233V8.12329C3.99347 6.83462 5.03814 5.78996 6.3268 5.78996L8.01767 5.79054C8.18322 4.29028 9.45503 3.12329 10.9994 3.12329H20.3368ZM25.0089 7.78996H23.3368V14.4338C24.4036 14.2837 25.2386 13.4124 25.3333 12.3288L25.3422 12.1233V8.12329C25.3422 7.96549 25.2325 7.8333 25.0853 7.79876L25.0089 7.78996ZM7.99942 7.78996H6.3268C6.14271 7.78996 5.99347 7.9392 5.99347 8.12329V12.1233C5.99347 13.3008 6.86575 14.2746 7.99942 14.4338V7.78996Z" fill="url(#paint0_linear_319_173490)"/>
<defs>
<linearGradient id="paint0_linear_319_173490" x1="3.99347" y1="16.4566" x2="27.3422" y2="16.4566" gradientUnits="userSpaceOnUse">
<stop stop-color="#FFE259"/>
<stop offset="1" stop-color="#FFA751"/>
</linearGradient>
</defs>
</svg>
