<svg id="Casino_icons" data-name="Casino icons" xmlns="http://www.w3.org/2000/svg" viewBox="0 0 100 100"><defs><style>.cls-1{fill:#ffad00;}</style></defs><path class="cls-1" d="M82.11,44.49a1,1,0,0,0,.08-.29.22.22,0,0,0,0-.08s0-.06,0-.09a1.36,1.36,0,0,0,0-.2v0a1,1,0,0,0-.11-.3.06.06,0,0,1,0,0L72.43,26s0,0,0,0a.83.83,0,0,0-.13-.18l0-.05a.87.87,0,0,0-.22-.17h0a1.17,1.17,0,0,0-.26-.1l-.07,0a.76.76,0,0,0-.21,0H28.53a.76.76,0,0,0-.21,0l-.08,0a1.3,1.3,0,0,0-.25.1h0a.87.87,0,0,0-.22.17l-.05.05a.83.83,0,0,0-.13.18s0,0,0,0L17.93,43.47a.06.06,0,0,1,0,0,1,1,0,0,0-.11.3v0a1.36,1.36,0,0,0,0,.2s0,.06,0,.09a.22.22,0,0,0,0,.08,1,1,0,0,0,.08.29s0,0,0,0a1.1,1.1,0,0,0,.17.25l0,0L49.14,79.31l.18.16h0a1,1,0,0,0,.28.14l.08,0a1,1,0,0,0,.64,0l.08,0a1,1,0,0,0,.28-.14h0a1.37,1.37,0,0,0,.18-.16L81.91,44.8l0,0a1.1,1.1,0,0,0,.17-.25S82.11,44.5,82.11,44.49ZM28.61,28.88l8.3,14h-16ZM42.38,38a1.16,1.16,0,0,0,1.6-.32l6-9.07,9.44,14.23H39.6l-9-15.17H47.85l-5.79,8.73A1.16,1.16,0,0,0,42.38,38Zm9.77-10.33H69.4L61.26,41.44ZM38,45.19l9.24,28.55L21.54,45.19Zm21.42,4.29a1.15,1.15,0,0,0-1.45.74L50,74.79l-9.59-29.6H78.46L52.77,73.74l7.38-22.81A1.15,1.15,0,0,0,59.41,49.48Zm3.68-6.6,8.3-14,7.71,14Z"/><path class="cls-1" d="M50,16.87a1.15,1.15,0,0,1-1.15-1.15V9.08a1.15,1.15,0,0,1,2.3,0v6.64A1.15,1.15,0,0,1,50,16.87Z"/><path class="cls-1" d="M74.31,19.89a1.13,1.13,0,0,1-.58-.16,1.15,1.15,0,0,1-.42-1.57l3.32-5.75a1.15,1.15,0,0,1,2,1.15l-3.32,5.75A1.15,1.15,0,0,1,74.31,19.89Z"/><path class="cls-1" d="M25.69,19.89a1.15,1.15,0,0,1-1-.58l-3.32-5.75a1.15,1.15,0,0,1,2-1.15l3.32,5.75a1.15,1.15,0,0,1-.42,1.57A1.1,1.1,0,0,1,25.69,19.89Z"/><path class="cls-1" d="M16.9,34.66a1.13,1.13,0,0,1-.58-.16l-5.74-3.32a1.15,1.15,0,1,1,1.15-2l5.75,3.31a1.16,1.16,0,0,1-.58,2.16Z"/><path class="cls-1" d="M83.1,34.66a1.16,1.16,0,0,1-.58-2.16l5.75-3.31a1.15,1.15,0,1,1,1.15,2L83.68,34.5A1.13,1.13,0,0,1,83.1,34.66Z"/></svg>