<svg id="Casino_icons" data-name="Casino icons" xmlns="http://www.w3.org/2000/svg" viewBox="0 0 100 100"><defs><style>.cls-1{fill:#ffad00;}</style></defs><path class="cls-1" d="M68.75,70h-45A3.75,3.75,0,0,1,20,66.25v-25a3.75,3.75,0,0,1,3.75-3.75h45a3.75,3.75,0,0,1,3.75,3.75v25A3.75,3.75,0,0,1,68.75,70Zm-45-30a1.25,1.25,0,0,0-1.25,1.25v25a1.25,1.25,0,0,0,1.25,1.25h45A1.25,1.25,0,0,0,70,66.25v-25A1.25,1.25,0,0,0,68.75,40Z"/><path class="cls-1" d="M76.25,62.5h-5a1.25,1.25,0,0,1,0-2.5h5a1.25,1.25,0,0,0,1.25-1.25v-25a1.25,1.25,0,0,0-1.25-1.25h-45A1.25,1.25,0,0,0,30,33.75v5a1.25,1.25,0,0,1-2.5,0v-5A3.75,3.75,0,0,1,31.25,30h45A3.75,3.75,0,0,1,80,33.75v25A3.75,3.75,0,0,1,76.25,62.5Z"/><path class="cls-1" d="M46.25,62.5A8.75,8.75,0,1,1,55,53.75,8.77,8.77,0,0,1,46.25,62.5Zm0-15a6.25,6.25,0,1,0,6.25,6.25A6.25,6.25,0,0,0,46.25,47.5Z"/></svg>