<svg id="Casino_icons" data-name="Casino icons" xmlns="http://www.w3.org/2000/svg" viewBox="0 0 100 100"><defs><style>.cls-1{fill:#ffad00;}</style></defs><path class="cls-1" d="M25.66,78.32A10.45,10.45,0,0,1,23.09,78a1.24,1.24,0,0,1-.91-.91A11.31,11.31,0,0,1,22.42,71a14.25,14.25,0,0,1,9.21-9.2,1.24,1.24,0,0,1,1.56.82,1.25,1.25,0,0,1-.82,1.56A11.59,11.59,0,0,0,27.68,67a11.46,11.46,0,0,0-2.87,4.69,9,9,0,0,0-.36,4,9.35,9.35,0,0,0,4-.36A11.75,11.75,0,0,0,36,67.82a1.25,1.25,0,0,1,2.39.74,14.24,14.24,0,0,1-9.21,9.21A11.94,11.94,0,0,1,25.66,78.32Z"/><path class="cls-1" d="M46.37,76.28a1.28,1.28,0,0,1-.47-.1A1.25,1.25,0,0,1,45.12,75V68.2c-2.7-6.48-7-10.78-13.12-13.14H25.16a1.25,1.25,0,0,1-.88-2.13l7.07-7.07a1.24,1.24,0,0,1,1.28-.3l9.16,3c1.12-7.25,4.73-14.1,10.75-20.41,6.7-5.94,14.81-7.82,24.17-5.66a1.26,1.26,0,0,1,1,1,30.91,30.91,0,0,1-5.52,23.91c-5,6.45-11.69,10-20.55,11l3,9.1a1.26,1.26,0,0,1-.3,1.28l-7.07,7.07A1.26,1.26,0,0,1,46.37,76.28ZM28.18,52.56h4a1.32,1.32,0,0,1,.44.08c6.9,2.59,11.9,7.59,14.86,14.84a1.28,1.28,0,0,1,.09.48V72L52,67.62l-3.29-9.87a1.3,1.3,0,0,1,.15-1.1,1.28,1.28,0,0,1,1-.55c8.9-.62,15.54-3.93,20.31-10.12A28,28,0,0,0,75.32,24.8c-8.28-1.7-15.17,0-21,5.2-6,6.27-9.43,13.16-10.19,20.41a1.24,1.24,0,0,1-1.64,1.05l-9.87-3.29Z"/><path class="cls-1" d="M64.05,42.39a6.25,6.25,0,0,1-4.42-10.67,6.38,6.38,0,0,1,8.84,0,6.25,6.25,0,0,1,0,8.84h0A6.21,6.21,0,0,1,64.05,42.39Zm0-10a3.75,3.75,0,0,0-2.65,6.4,3.85,3.85,0,0,0,5.3,0,3.75,3.75,0,0,0-2.65-6.4Zm3.54,7.28h0Z"/></svg>