<svg id="Casino_icons" data-name="Casino icons" xmlns="http://www.w3.org/2000/svg" viewBox="0 0 100 100"><defs><style>.cls-1{fill:#ffad00;}</style></defs><path class="cls-1" d="M51.25,80a1.19,1.19,0,0,1-.76-.26l-14.34-11a32.26,32.26,0,0,1-9.9-23.38V27.85a3.8,3.8,0,0,1,2.33-3.54c14.61-5.81,28.93-5.73,42.54.23a3.66,3.66,0,0,1,2.63,3.6V46.26a32.13,32.13,0,0,1-8.66,22.16l-13,11.27A1.28,1.28,0,0,1,51.25,80ZM49.9,22.52a55.08,55.08,0,0,0-20.4,4.11,1.32,1.32,0,0,0-.75,1.22V45.32a29.76,29.76,0,0,0,9,21.49L51.2,77.13,63.36,66.62a30,30,0,0,0,7.89-20.36V28.14a1.22,1.22,0,0,0-.9-1.23A50.63,50.63,0,0,0,49.9,22.52Z"/><path class="cls-1" d="M50,55a1.25,1.25,0,0,1-.88-.36l-7.5-7.5a1.25,1.25,0,1,1,1.76-1.77l6.43,6.42L59,38A1.25,1.25,0,1,1,61,39.4l-10,15a1.26,1.26,0,0,1-.92.55Z"/></svg>