<svg id="Casino_icons" data-name="Casino icons" xmlns="http://www.w3.org/2000/svg" viewBox="0 0 100 100"><defs><style>.cls-1{fill:#ffad00;}</style></defs><path class="cls-1" d="M33.75,57.5h-2.5a8.75,8.75,0,0,1,0-17.5h2.5A1.25,1.25,0,0,1,35,41.25v15A1.25,1.25,0,0,1,33.75,57.5Zm-2.5-15a6.25,6.25,0,0,0,0,12.5H32.5V42.5Z"/><path class="cls-1" d="M71.25,57.5h-2.5a1.25,1.25,0,0,1-1.25-1.25v-15A1.25,1.25,0,0,1,68.75,40h2.5a8.75,8.75,0,0,1,0,17.5ZM70,55h1.25a6.25,6.25,0,0,0,0-12.5H70Z"/><path class="cls-1" d="M68.75,42.5a1.25,1.25,0,0,1-1.25-1.25v-5c0-7.74-8.74-13.75-16.25-13.75S35,28.51,35,36.25v5a1.25,1.25,0,0,1-2.5,0v-5C32.5,27.1,42.58,20,51.25,20S70,27.1,70,36.25v5A1.25,1.25,0,0,1,68.75,42.5Z"/><path class="cls-1" d="M58.75,67.5a1.25,1.25,0,0,1,0-2.5,9.1,9.1,0,0,0,8.75-8.75,1.25,1.25,0,0,1,2.5,0A11.55,11.55,0,0,1,58.75,67.5Z"/><path class="cls-1" d="M78.75,80a1.25,1.25,0,0,1-1.25-1.25,11.74,11.74,0,0,0-3.93-8.31,18.83,18.83,0,0,0-2.33-2,1.25,1.25,0,1,1,1.47-2,22,22,0,0,1,2.62,2.23A14.14,14.14,0,0,1,80,78.75,1.25,1.25,0,0,1,78.75,80Z"/><path class="cls-1" d="M21.25,80A1.25,1.25,0,0,1,20,78.75c0-7.81,7.46-14.66,19-17.44a1.25,1.25,0,0,1,.58,2.43c-10.22,2.46-17.09,8.5-17.09,15A1.25,1.25,0,0,1,21.25,80Z"/><path class="cls-1" d="M56.25,70h-5a3.75,3.75,0,0,1,0-7.5h5a3.75,3.75,0,0,1,0,7.5Zm-5-5a1.25,1.25,0,0,0,0,2.5h5a1.25,1.25,0,0,0,0-2.5Z"/></svg>