<svg width="32" height="33" viewBox="0 0 32 33" fill="none" xmlns="http://www.w3.org/2000/svg">
<path fill-rule="evenodd" clip-rule="evenodd" d="M15.6 4.19463C9.33335 4.32797 3.86667 9.52797 3.73334 16.4613C3.73334 23.2613 9.20002 28.728 16 28.728C22.6667 28.728 28.1334 23.528 28.2667 16.4613C28.2667 9.2613 22.5333 3.92797 15.6 4.19463ZM16 6.59463V13.6613C15.2934 13.6613 14.6533 13.928 14.16 14.368L9.46667 8.99463C11.3333 7.39463 13.6 6.59463 16 6.59463ZM6.13334 17.6613L13.24 16.7946C13.32 17.4746 13.64 18.088 14.1333 18.528L9.34668 23.7946C7.60001 22.1946 6.40001 20.0613 6.13334 17.6613ZM16 26.4613V19.2613C16.6934 19.2613 17.3334 18.9946 17.8134 18.5813L22.5333 24.0613C20.6667 25.6613 18.4 26.4613 16 26.4613ZM18.7734 16.168C18.6934 15.4746 18.3867 14.8613 17.9067 14.4213L22.68 9.27463C24.4133 10.8746 25.6133 13.008 25.88 15.408L18.7734 16.168Z" fill="url(#paint0_linear_319_173484)"/>
<defs>
<linearGradient id="paint0_linear_319_173484" x1="3.73334" y1="16.4565" x2="28.2667" y2="16.4565" gradientUnits="userSpaceOnUse">
<stop stop-color="#00D2FF"/>
<stop offset="1" stop-color="#3A7BD5"/>
</linearGradient>
</defs>
</svg>
